# xmcd
# 
# Track frame offsets:
#     150
#     21021
#     37432
#     58319
# 
# Disc length: 992
# 
# Revision: 1
# Processed by: cddbd v1.5.2PL0 Copyright (c) Steve Scherf et al.
# Submitted via: fre:ac v1.0.31
# 
DISCID=3703de04
DTITLE=ジャニーズWEST - おーさか☆愛・EYE・哀/ Yo！Hot！Hot！
DYEAR=2017
DGENRE=JPop
TTITLE0=おーさか☆愛・EYE・哀
TTITLE1=Yo！Hot！Hot！
TTITLE2=おーさか☆愛・EYE・哀(オリジナル・カラオケ)
TTITLE3=Ya！Hot！Hot！(オリジナル・カラオケ)
EXTD=
EXTT0=
EXTT1=
EXTT2=
EXTT3=
PLAYORDER=
